<?xml version="1.0" encoding="utf-8"?>

<svg version="1.1" xmlns="http://www.w3.org/2000/svg" xmlns:xlink="http://www.w3.org/1999/xlink" width="16" height="64">
  <defs>
    <symbol id="icon-globe">
      <path d="M11.173 0.605l-0.018-0.036c-1.352-0.551-2.829-0.729-4.288-0.48l0.018 0.018c-0.854 0.142-1.69 0.409-2.491 0.835-0.658 0.338-1.245 0.764-1.744 1.244v-0.018c-0.925 0.871-1.619 1.919-2.028 3.092 0 0.018 0 0.018-0.018 0.036-0.036 0.107-0.071 0.213-0.107 0.32 0 0.018 0 0.018-0.018 0.036-0.036 0.124-0.071 0.231-0.107 0.355 0 0.018-0.018 0.036-0.018 0.053-0.018 0.089-0.036 0.178-0.071 0.267-0.018 0.071-0.018 0.124-0.036 0.195 0 0.053-0.018 0.089-0.018 0.142-0.018 0.071-0.018 0.16-0.036 0.231 0 0.036 0 0.053-0.018 0.089-0.178 1.564 0.089 3.217 0.89 4.727 2.064 3.91 6.885 5.402 10.799 3.341s5.391-6.895 3.327-10.787c-0.907-1.724-2.348-2.986-4.021-3.661zM7.206 0.846c0 0 0.383 0.187 0.439 0.333s-0.384-0.012-0.158 0.399c0.227 0.411 0.685 0.605 0.772 0.715s0.053 0.333 0.053 0.333c0 0 0.551-0.029 0.596 0.050s0.112 0.298-0.386 0.316c-0.498 0.017-0.373-0.587-1.035-0.266s-0.942 1.057-1.193 1.347c-0.251 0.29-0.379 0.308-0.491 0.599s-0.096 0.548-0.667 0.466c-0.571-0.083-0.717-0.228-1.070 0s-0.499 0.572-0.561 0.815c-0.062 0.243-0.182 0.408 0.211 0.549s0.636-0.223 0.947-0.133c0.311 0.090 0.457 0.364 0.544 0.565s-0.188 0.351-0.070 0.532c0.118 0.181 0.124 0.192 0.491 0.116s0.108-0.345 0.719-0.366c0.612-0.021 0.651 0.116 1.246 0.299s0.694 0.345 1.175 0.449c0.481 0.104 0.652-0.168 0.982 0.017s0.023 0.463 0.509 0.815c0.486 0.352 0.644 0.127 1.123 0.366s0.831 0.387 0.912 0.649c0.081 0.262-0.168 0.014-0.509 0.649s-0.329 1.089-0.579 1.38c-0.25 0.291-0.478-0.088-0.719 0.133s0.165 0.249-0.298 0.798c-0.464 0.549-0.774 0.683-1.105 0.865s-0.515-0.032-0.719 0.133c-0.204 0.165-0.203 0.447-0.246 0.649s-0.097 0.253 0.018 0.432c0.114 0.179-0.24 0.128-0.439 0s-0.324 0.001-0.386-1.081c-0.061-1.082 0.242-1.315 0.228-1.696s0.093-0.355-0.228-0.715c-0.321-0.36-0.45-0.098-0.825-0.466s-0.45-0.179-0.632-0.964c-0.182-0.786 0.078-1.474 0-1.763s-0.223-0.048-0.526-0.183c-0.304-0.135-0.422-0.167-0.596-0.316s-0.041-0.22-0.281-0.432c-0.24-0.213-0.372-0.267-0.544-0.299s0.162 0.379-0.351 0.133c-0.513-0.246-0.701-0.461-1-0.782s-0.321-0.231-0.491-0.815c-0.17-0.584-0.248-0.696-0.123-1.297s0.61-1.058 0.614-1.064c0.004-0.007 1.263-1.081 2.053-1.48 0 0 1.702-0.665 2.596-0.782zM15.303 7.169c0 0-0.318 0.032-0.411 0.12s0.070 0.367-0.086 0.53c-0.156 0.164-0.316 0.040-0.474 0.059-0.070 0.009-0.039-0.316-0.039-0.316s-0.84-0.482-0.925-0.667c-0.085-0.185-0.029-0.173-0.206-0.821s-0.144-1.024-0.206-1.42c-0.061-0.396 0.006-0.517-0.137-0.787s-0.35-0.244-0.463-0.342c-0.113-0.098-0.27-0.095-0.206-0.24s0.492 0.004 0.411-0.222c-0.081-0.227-0.411-0.369-0.668-0.496s-0.377-0.445-0.377-0.445l-0.411-0.565c1.422 0.667 2.638 1.779 3.426 3.268 0.394 0.753 0.651 1.54 0.771 2.344z"></path>
    </symbol>

    <symbol id="icon-source">
      <path d="M11.517 12.299l-2.662-1.331c-0.251-0.125-0.407-0.378-0.407-0.659v-0.942c0.064-0.078 0.131-0.167 0.2-0.265 0.345-0.488 0.622-1.030 0.823-1.616 0.393-0.18 0.648-0.569 0.648-1.008v-1.115c0-0.268-0.1-0.528-0.279-0.731v-1.482c0.016-0.153 0.077-1.066-0.583-1.818-0.572-0.653-1.501-0.984-2.761-0.984s-2.188 0.331-2.761 0.984c-0.66 0.753-0.599 1.665-0.583 1.818v1.482c-0.178 0.203-0.279 0.463-0.279 0.731v1.115c0 0.339 0.154 0.655 0.417 0.866 0.255 1.011 0.79 1.772 0.976 2.017v0.922c0 0.27-0.147 0.517-0.384 0.646l-2.486 1.356c-0.808 0.441-1.31 1.286-1.31 2.207v1.181h12.817v-1.127c0-0.959-0.532-1.82-1.389-2.248z"></path>
      <path d="M15.545 12.616l-2.709-1.173c-0.064-0.032-0.135-0.11-0.196-0.215l1.818-0.001c0 0 0.105 0.010 0.268 0.010 0.299 0 0.735-0.034 1.115-0.197 0.228-0.098 0.397-0.292 0.465-0.531 0.069-0.242 0.025-0.498-0.119-0.703-0.52-0.74-1.733-2.672-1.77-4.632-0.001-0.034-0.111-3.367-3.402-3.394-0.331 0.002-0.644 0.043-0.94 0.115 0.221 0.583 0.2 1.106 0.185 1.275v1.319c0.181 0.257 0.279 0.562 0.279 0.875v1.115c0 0.531-0.28 1.023-0.726 1.299-0.208 0.564-0.485 1.090-0.822 1.566-0.042 0.059-0.083 0.115-0.123 0.169v0.797c0 0.123 0.066 0.23 0.176 0.285l2.662 1.331c0.999 0.5 1.62 1.504 1.62 2.622v1.127h3.483v-1.030c0-0.862-0.479-1.636-1.263-2.028z"></path>
    </symbol>

    <symbol id="icon-track">
      <path d="M8,0 C3.5888,0 0,3.5888 0,8 C0,12.4112 3.5888,16 8,16 C12.4112,16 16,12.4112 16,8 C16,3.5888 12.4112,0 8,0 Z M12.1882667,3.85173333 L7.57733333,13.1536 C7.532,13.2456 7.4384,13.3018667 7.3384,13.3018667 L7.2936,13.2978667 C7.17733333,13.2781333 7.088,13.184 7.0736,13.0672 L6.59146667,9.08053333 L2.36933333,8.3728 C2.2536,8.3536 2.16426667,8.26106667 2.14906667,8.14506667 C2.1336,8.0288 2.19546667,7.91653333 2.30213333,7.86746667 L11.8384,3.49093333 C11.9402667,3.44373333 12.0621333,3.46666667 12.1408,3.54773333 C12.2194667,3.62853333 12.2384,3.7504 12.1882667,3.85173333 Z" id="Fill-748"></path>
    </symbol>

    <symbol id="icon-collaborate">
      <path d="M2.3 2.345h11.733c0.147 0 0.267-0.116 0.267-0.259v-0.831c0-0.674-0.585-1.243-1.278-1.243h-9.71c-0.693 0-1.278 0.569-1.278 1.243v0.831c0 0.143 0.119 0.259 0.267 0.259z"></path>
      <path d="M14.567 2.678h-12.8c-0.867 0-1.6 0.733-1.6 1.6v7.467c0 0.867 0.733 1.6 1.6 1.6h3.881l2.321 2.578c0.050 0.056 0.123 0.088 0.198 0.088s0.148-0.032 0.198-0.088l2.321-2.578h3.881c0.867 0 1.6-0.733 1.6-1.6v-7.467c0-0.867-0.733-1.6-1.6-1.6v0zM4.7 8.807c-0.588 0-1.067-0.478-1.067-1.067s0.478-1.067 1.067-1.067c0.588 0 1.067 0.478 1.067 1.067s-0.478 1.067-1.067 1.067v0zM8.167 8.807c-0.588 0-1.067-0.478-1.067-1.067s0.478-1.067 1.067-1.067c0.588 0 1.067 0.478 1.067 1.067s-0.478 1.067-1.067 1.067v0zM11.633 8.807c-0.588 0-1.067-0.478-1.067-1.067s0.478-1.067 1.067-1.067c0.588 0 1.067 0.478 1.067 1.067s-0.478 1.067-1.067 1.067v0z"></path>
    </symbol>
  </defs>

  <use xlink:href="#icon-globe"/>
  <use xlink:href="#icon-source" transform="translate(0, 16)"/>
  <use xlink:href="#icon-track" transform="translate(0, 32)"/>
  <use xlink:href="#icon-collaborate" transform="translate(0, 48)"/>
</svg>